<svg xmlns="http://www.w3.org/2000/svg" width="12" height="13" viewBox="0 0 12 13" fill="none">
    <path
        d="M2 0.3125C1.73736 0.3125 1.47728 0.364232 1.23463 0.464741C0.991982 0.56525 0.771504 0.712569 0.585786 0.898286C0.210714 1.27336 0 1.78207 0 2.3125V10.3125C0 10.8429 0.210714 11.3516 0.585786 11.7267C0.771504 11.9124 0.991982 12.0597 1.23463 12.1603C1.47728 12.2608 1.73736 12.3125 2 12.3125H10C10.5304 12.3125 11.0391 12.1018 11.4142 11.7267C11.7893 11.3516 12 10.8429 12 10.3125V2.3125C12 2.04986 11.9483 1.78978 11.8478 1.54713C11.7472 1.30448 11.5999 1.084 11.4142 0.898286C11.2285 0.712569 11.008 0.56525 10.7654 0.464741C10.5227 0.364232 10.2626 0.3125 10 0.3125H2ZM0.8 2.3125C0.8 1.99424 0.926428 1.68902 1.15147 1.46397C1.37652 1.23893 1.68174 1.1125 2 1.1125H10C10.3183 1.1125 10.6235 1.23893 10.8485 1.46397C11.0736 1.68902 11.2 1.99424 11.2 2.3125V10.3125C11.2 10.6308 11.0736 10.936 10.8485 11.161C10.6235 11.3861 10.3183 11.5125 10 11.5125H2C1.68174 11.5125 1.37652 11.3861 1.15147 11.161C0.926428 10.936 0.8 10.6308 0.8 10.3125V2.3125Z"
        fill="#1B3F57" />
    <path
        d="M8.64373 2.1525H7.04373C6.95886 2.1525 6.87746 2.18621 6.81745 2.24623C6.75744 2.30624 6.72373 2.38763 6.72373 2.4725C6.72373 2.55737 6.75744 2.63876 6.81745 2.69877C6.87746 2.75879 6.95886 2.7925 7.04373 2.7925H7.87133L6.86533 3.7985C6.56994 3.52322 6.21362 3.32171 5.82547 3.21044C5.43733 3.09917 5.02837 3.08128 4.632 3.15825C4.23562 3.23523 3.86308 3.40486 3.54479 3.65332C3.2265 3.90177 2.97149 4.22199 2.80059 4.58782C2.6297 4.95365 2.54776 5.35471 2.56147 5.75826C2.57519 6.1618 2.68416 6.55638 2.8795 6.90977C3.07484 7.26315 3.35099 7.56532 3.68542 7.79159C4.01984 8.01786 4.40304 8.16182 4.80373 8.2117V8.8725H3.84373C3.75886 8.8725 3.67747 8.90621 3.61745 8.96623C3.55744 9.02624 3.52373 9.10763 3.52373 9.1925C3.52373 9.27737 3.55744 9.35876 3.61745 9.41878C3.67747 9.47879 3.75886 9.5125 3.84373 9.5125H4.80373V10.4725C4.80373 10.5574 4.83744 10.6388 4.89745 10.6988C4.95747 10.7588 5.03886 10.7925 5.12373 10.7925C5.2086 10.7925 5.28999 10.7588 5.35 10.6988C5.41001 10.6388 5.44373 10.5574 5.44373 10.4725V9.5125H6.40373C6.4886 9.5125 6.56999 9.47879 6.63 9.41878C6.69001 9.35876 6.72373 9.27737 6.72373 9.1925C6.72373 9.10763 6.69001 9.02624 6.63 8.96623C6.56999 8.90621 6.4886 8.8725 6.40373 8.8725H5.44373V8.2117C5.87266 8.15812 6.281 7.99667 6.63059 7.74243C6.98019 7.48819 7.25962 7.14947 7.44276 6.75792C7.62591 6.36637 7.7068 5.93479 7.67787 5.50349C7.64894 5.0722 7.51113 4.65528 7.27733 4.2917L8.32373 3.2449V4.0725C8.32373 4.15737 8.35744 4.23876 8.41745 4.29877C8.47747 4.35879 8.55886 4.3925 8.64373 4.3925C8.7286 4.3925 8.80999 4.35879 8.87 4.29877C8.93001 4.23876 8.96373 4.15737 8.96373 4.0725V2.4725C8.96373 2.38763 8.93001 2.30624 8.87 2.24623C8.80999 2.18621 8.7286 2.1525 8.64373 2.1525ZM5.12373 7.5925C4.74399 7.5925 4.37278 7.47989 4.05703 7.26892C3.74129 7.05795 3.4952 6.75809 3.34988 6.40725C3.20456 6.05642 3.16654 5.67037 3.24062 5.29793C3.3147 4.92548 3.49757 4.58337 3.76608 4.31486C4.0346 4.04634 4.37671 3.86348 4.74915 3.78939C5.1216 3.71531 5.50765 3.75333 5.85848 3.89865C6.20931 4.04397 6.50918 4.29006 6.72015 4.60581C6.93112 4.92155 7.04373 5.29276 7.04373 5.6725C7.0432 6.18155 6.84074 6.66961 6.48079 7.02956C6.12083 7.38952 5.63278 7.59197 5.12373 7.5925Z"
        fill="#1B3F57" />
</svg>