<svg xmlns="http://www.w3.org/2000/svg" width="12" height="13" viewBox="0 0 12 13" fill="none">
    <g clip-path="url(#clip0_1_107)">
        <path
            d="M5.99999 2.36438C5.26945 2.36404 4.56616 2.64169 4.03287 3.14098C3.49958 3.64026 3.17626 4.32376 3.12854 5.05273C3.08082 5.78171 3.31227 6.50153 3.77591 7.06608C4.23955 7.63063 4.90064 7.9976 5.62499 8.0925V8.62688H4.75124C4.65178 8.62688 4.5564 8.66639 4.48607 8.73671C4.41574 8.80704 4.37624 8.90242 4.37624 9.00188C4.37624 9.10134 4.41574 9.19672 4.48607 9.26705C4.5564 9.33737 4.65178 9.37688 4.75124 9.37688H5.62499V10.2394C5.62499 10.3388 5.66449 10.4342 5.73482 10.5045C5.80515 10.5749 5.90053 10.6144 5.99999 10.6144C6.09944 10.6144 6.19482 10.5749 6.26515 10.5045C6.33548 10.4342 6.37499 10.3388 6.37499 10.2394V9.37688H7.24874C7.34819 9.37688 7.44357 9.33737 7.5139 9.26705C7.58423 9.19672 7.62374 9.10134 7.62374 9.00188C7.62374 8.90242 7.58423 8.80704 7.5139 8.73671C7.44357 8.66639 7.34819 8.62688 7.24874 8.62688H6.37499V8.0925C7.09826 7.99629 7.75795 7.62881 8.22047 7.06449C8.68299 6.50017 8.91379 5.78117 8.86612 5.05308C8.81846 4.32499 8.4959 3.64222 7.96375 3.14302C7.4316 2.64381 6.72963 2.36548 5.99999 2.36438ZM3.87374 5.24063C3.87374 4.96141 3.92873 4.68492 4.03559 4.42695C4.14244 4.16898 4.29906 3.93458 4.4965 3.73714C4.69394 3.5397 4.92834 3.38309 5.18631 3.27623C5.44427 3.16938 5.72076 3.11438 5.99999 3.11438C6.27921 3.11438 6.5557 3.16938 6.81367 3.27623C7.07164 3.38309 7.30603 3.5397 7.50347 3.73714C7.70091 3.93458 7.85753 4.16898 7.96439 4.42695C8.07124 4.68492 8.12624 4.96141 8.12624 5.24063C8.12624 5.80455 7.90222 6.34537 7.50347 6.74412C7.10472 7.14286 6.5639 7.36688 5.99999 7.36688C5.43607 7.36688 4.89525 7.14286 4.4965 6.74412C4.09775 6.34537 3.87374 5.80455 3.87374 5.24063Z"
            fill="white" />
        <path
            d="M2.25 0.864365C2.00377 0.864365 1.75995 0.912863 1.53247 1.00709C1.30498 1.10132 1.09828 1.23943 0.924175 1.41354C0.572544 1.76517 0.375 2.24208 0.375 2.73936V10.2394C0.375 10.7366 0.572544 11.2136 0.924175 11.5652C1.09828 11.7393 1.30498 11.8774 1.53247 11.9716C1.75995 12.0659 2.00377 12.1144 2.25 12.1144H9.75C10.2473 12.1144 10.7242 11.9168 11.0758 11.5652C11.4275 11.2136 11.625 10.7366 11.625 10.2394V2.73936C11.625 2.49314 11.5765 2.24932 11.4823 2.02183C11.388 1.79435 11.2499 1.58765 11.0758 1.41354C10.9017 1.23943 10.695 1.10132 10.4675 1.00709C10.24 0.912863 9.99623 0.864365 9.75 0.864365H2.25ZM1.125 2.73936C1.125 2.441 1.24353 2.15485 1.4545 1.94387C1.66548 1.73289 1.95163 1.61436 2.25 1.61436H9.75C10.0484 1.61436 10.3345 1.73289 10.5455 1.94387C10.7565 2.15485 10.875 2.441 10.875 2.73936V10.2394C10.875 10.5377 10.7565 10.8239 10.5455 11.0349C10.3345 11.2458 10.0484 11.3644 9.75 11.3644H2.25C1.95163 11.3644 1.66548 11.2458 1.4545 11.0349C1.24353 10.8239 1.125 10.5377 1.125 10.2394V2.73936Z"
            fill="white" />
    </g>
    <defs>
        <clipPath id="clip0_1_107">
            <rect width="12" height="12" fill="white" transform="translate(0 0.48938)" />
        </clipPath>
    </defs>
</svg>