<svg width="12" height="13" viewBox="0 0 12 13" fill="none" xmlns="http://www.w3.org/2000/svg">
    <g clip-path="url(#clip0_1_80)">
        <path
            d="M7.41788 3.125C7.41788 3.02554 7.45739 2.93016 7.52772 2.85984C7.59804 2.78951 7.69343 2.75 7.79288 2.75H9.37501C9.47446 2.75 9.56985 2.78951 9.64017 2.85984C9.7105 2.93016 9.75001 3.02554 9.75001 3.125V4.73637C9.75001 4.83583 9.7105 4.93121 9.64017 5.00154C9.56985 5.07187 9.47446 5.11137 9.37501 5.11137C9.27555 5.11137 9.18017 5.07187 9.10984 5.00154C9.03952 4.93121 9.00001 4.83583 9.00001 4.73637V4.07112L7.70063 5.38663C8.16687 5.99077 8.38534 6.74989 8.31158 7.50945C8.23781 8.26901 7.87736 8.97191 7.30359 9.47506C6.72981 9.97821 5.98586 10.2438 5.22318 10.2177C4.46049 10.1917 3.7364 9.87593 3.19831 9.33479C2.66022 8.79365 2.34859 8.06778 2.32684 7.30496C2.3051 6.54214 2.57488 5.7997 3.08126 5.22878C3.58765 4.65787 4.29258 4.3014 5.05254 4.23193C5.81251 4.16246 6.57038 4.38523 7.17188 4.85488L8.50988 3.5H7.79251C7.69305 3.5 7.59767 3.46049 7.52734 3.39016C7.45702 3.31984 7.41788 3.22446 7.41788 3.125ZM3.07613 7.22075C3.07613 7.81749 3.31318 8.38978 3.73514 8.81174C4.1571 9.2337 4.72939 9.47075 5.32613 9.47075C5.92287 9.47075 6.49516 9.2337 6.91712 8.81174C7.33908 8.38978 7.57613 7.81749 7.57613 7.22075C7.57613 6.62401 7.33908 6.05172 6.91712 5.62976C6.49516 5.2078 5.92287 4.97075 5.32613 4.97075C4.72939 4.97075 4.1571 5.2078 3.73514 5.62976C3.31318 6.05172 3.07613 6.62401 3.07613 7.22075Z"
            fill="#1B3F57" />
        <path
            d="M2.25 0.875C2.00377 0.875 1.75995 0.923498 1.53247 1.01773C1.30498 1.11195 1.09828 1.25006 0.924175 1.42417C0.572544 1.77581 0.375 2.25272 0.375 2.75V10.25C0.375 10.7473 0.572544 11.2242 0.924175 11.5758C1.09828 11.7499 1.30498 11.888 1.53247 11.9823C1.75995 12.0765 2.00377 12.125 2.25 12.125H9.75C10.2473 12.125 10.7242 11.9275 11.0758 11.5758C11.4275 11.2242 11.625 10.7473 11.625 10.25V2.75C11.625 2.50377 11.5765 2.25995 11.4823 2.03247C11.388 1.80498 11.2499 1.59828 11.0758 1.42417C10.9017 1.25006 10.695 1.11195 10.4675 1.01773C10.24 0.923498 9.99623 0.875 9.75 0.875H2.25ZM1.125 2.75C1.125 2.45163 1.24353 2.16548 1.4545 1.9545C1.66548 1.74353 1.95163 1.625 2.25 1.625H9.75C10.0484 1.625 10.3345 1.74353 10.5455 1.9545C10.7565 2.16548 10.875 2.45163 10.875 2.75V10.25C10.875 10.5484 10.7565 10.8345 10.5455 11.0455C10.3345 11.2565 10.0484 11.375 9.75 11.375H2.25C1.95163 11.375 1.66548 11.2565 1.4545 11.0455C1.24353 10.8345 1.125 10.5484 1.125 10.25V2.75Z"
            fill="#1B3F57" />
    </g>
    <defs>
        <clipPath id="clip0_1_80">
            <rect width="12" height="12" fill="white" transform="translate(0 0.5)" />
        </clipPath>
    </defs>
</svg>
    